PathFileType	4	(X/Y/Z)	C:\Users\italobelli\Desktop\GitHub\PTbot_officialCBL\Personal_Results\FLX02_noisy2.trc
DataRate	CameraRate	NumFrames	NumMarkers	Units	OrigDataRate	OrigDataStartFrame	OrigNumFrames
106.125000	106.125000	47	9	m	106.125000	532	850
Frame#	Time		gu		centelbow		EpL		centpxt8		centijc7		ij		ts		aa		ai
			X1	Y1	Z1	X2	Y2	Z2	X3	Y3	Z3	X4	Y4	Z4	X5	Y5	Z5	X6	Y6	Z6	X7	Y7	Z7	X8	Y8	Z8	X9	Y9	Z9

532	5.0035	-0.097555	0.054064	0.11917	0.09919	0.12793	0.24511	0.085757	0.1571	0.24201	-0.046816	-0.15316	-0.008669	-0.046816	0.031938	-0.008669	0	0	0	-0.1572	-0.0072616	0.04441	-0.12736	0.075142	0.12529	-0.13871	-0.085292	0.12474
533	5.013	-0.097453	0.053896	0.11939	0.099739	0.12596	0.24561	0.086477	0.15526	0.24267	-0.046816	-0.15316	-0.008669	-0.046816	0.031938	-0.008669	0	0	0	-0.15716	-0.0070889	0.044321	-0.12727	0.074958	0.12551	-0.13878	-0.085469	0.1243
534	5.0224	-0.097344	0.053724	0.1196	0.10028	0.12394	0.24611	0.087194	0.15337	0.24335	-0.046816	-0.15316	-0.008669	-0.046816	0.031938	-0.008669	0	0	0	-0.15712	-0.0069153	0.044234	-0.12718	0.074771	0.12574	-0.13884	-0.085645	0.12387
535	5.0318	-0.09723	0.053548	0.11983	0.10081	0.12188	0.24663	0.087908	0.15143	0.24404	-0.046816	-0.15316	-0.008669	-0.046816	0.031938	-0.008669	0	0	0	-0.15708	-0.0067406	0.044147	-0.12708	0.074579	0.12597	-0.13891	-0.085822	0.12343
536	5.0412	-0.09711	0.053367	0.12005	0.10133	0.11976	0.24714	0.088618	0.14944	0.24474	-0.046816	-0.15316	-0.008669	-0.046816	0.031938	-0.008669	0	0	0	-0.15703	-0.006565	0.044061	-0.12699	0.074384	0.1262	-0.13897	-0.085998	0.123
537	5.0506	-0.096983	0.053181	0.12028	0.10184	0.11761	0.24767	0.089324	0.14739	0.24545	-0.046816	-0.15316	-0.008669	-0.046816	0.031938	-0.008669	0	0	0	-0.15698	-0.0063885	0.043975	-0.1269	0.074185	0.12645	-0.13903	-0.086175	0.12256
538	5.0601	-0.096852	0.052991	0.12051	0.10234	0.1154	0.2482	0.090025	0.14531	0.24616	-0.046816	-0.15316	-0.008669	-0.046816	0.031938	-0.008669	0	0	0	-0.15693	-0.0062112	0.043891	-0.12681	0.073982	0.12669	-0.13908	-0.086351	0.12212
539	5.0695	-0.096716	0.052796	0.12074	0.10284	0.11316	0.24873	0.090722	0.14317	0.24689	-0.046816	-0.15316	-0.008669	-0.046816	0.031938	-0.008669	0	0	0	-0.15688	-0.006033	0.043807	-0.12672	0.073775	0.12694	-0.13913	-0.086527	0.12168
540	5.0789	-0.096574	0.052597	0.12098	0.10332	0.11088	0.24927	0.091413	0.14099	0.24762	-0.046816	-0.15316	-0.008669	-0.046816	0.031938	-0.008669	0	0	0	-0.15682	-0.0058541	0.043724	-0.12662	0.073565	0.1272	-0.13918	-0.086702	0.12124
541	5.0883	-0.096428	0.052393	0.12122	0.10379	0.10856	0.24981	0.092099	0.13877	0.24837	-0.046816	-0.15316	-0.008669	-0.046816	0.031938	-0.008669	0	0	0	-0.15676	-0.0056744	0.043642	-0.12653	0.073351	0.12746	-0.13923	-0.086877	0.1208
542	5.0978	-0.096278	0.052185	0.12146	0.10425	0.1062	0.25035	0.092779	0.13651	0.24911	-0.046816	-0.15316	-0.008669	-0.046816	0.031938	-0.008669	0	0	0	-0.1567	-0.0054941	0.043561	-0.12644	0.073134	0.12772	-0.13928	-0.087052	0.12036
543	5.1072	-0.096124	0.051973	0.12171	0.1047	0.1038	0.25089	0.093452	0.1342	0.24987	-0.046816	-0.15316	-0.008669	-0.046816	0.031938	-0.008669	0	0	0	-0.15664	-0.0053132	0.043481	-0.12634	0.072913	0.12799	-0.13932	-0.087227	0.11992
544	5.1166	-0.095966	0.051757	0.12196	0.10514	0.10137	0.25144	0.094118	0.13186	0.25062	-0.046816	-0.15316	-0.008669	-0.046816	0.031938	-0.008669	0	0	0	-0.15657	-0.0051317	0.043402	-0.12625	0.072688	0.12826	-0.13936	-0.087401	0.11948
545	5.126	-0.095805	0.051536	0.12221	0.10557	0.098902	0.25199	0.094777	0.12948	0.25138	-0.046816	-0.15316	-0.008669	-0.046816	0.031938	-0.008669	0	0	0	-0.1565	-0.0049497	0.043324	-0.12616	0.07246	0.12854	-0.1394	-0.087575	0.11904
546	5.1355	-0.09564	0.051311	0.12246	0.10599	0.096405	0.25254	0.095427	0.12706	0.25215	-0.046816	-0.15316	-0.008669	-0.046816	0.031938	-0.008669	0	0	0	-0.15643	-0.0047672	0.043246	-0.12606	0.072229	0.12882	-0.13944	-0.087748	0.1186
547	5.1449	-0.095473	0.051082	0.12272	0.10639	0.093876	0.25309	0.09607	0.12461	0.25292	-0.046816	-0.15316	-0.008669	-0.046816	0.031938	-0.008669	0	0	0	-0.15636	-0.0045842	0.04317	-0.12597	0.071995	0.1291	-0.13947	-0.08792	0.11815
548	5.1543	-0.095302	0.050849	0.12298	0.10679	0.091318	0.25364	0.096704	0.12212	0.25369	-0.046816	-0.15316	-0.008669	-0.046816	0.031938	-0.008669	0	0	0	-0.15629	-0.0044009	0.043095	-0.12588	0.071757	0.12939	-0.13951	-0.088092	0.11771
549	5.1637	-0.09513	0.050612	0.12324	0.10717	0.088733	0.25419	0.097329	0.1196	0.25446	-0.046816	-0.15316	-0.008669	-0.046816	0.031938	-0.008669	0	0	0	-0.15621	-0.0042172	0.04302	-0.12578	0.071516	0.12967	-0.13954	-0.088264	0.11726
550	5.1731	-0.094956	0.050371	0.1235	0.10754	0.08612	0.25473	0.097945	0.11706	0.25523	-0.046816	-0.15316	-0.008669	-0.046816	0.031938	-0.008669	0	0	0	-0.15614	-0.0040332	0.042947	-0.12569	0.071272	0.12997	-0.13957	-0.088435	0.11682
551	5.1826	-0.094779	0.050127	0.12377	0.1079	0.083482	0.25528	0.09855	0.11448	0.25601	-0.046816	-0.15316	-0.008669	-0.046816	0.031938	-0.008669	0	0	0	-0.15606	-0.003849	0.042875	-0.1256	0.071025	0.13026	-0.1396	-0.088605	0.11637
552	5.192	-0.094601	0.049878	0.12404	0.10825	0.08082	0.25582	0.099146	0.11187	0.25678	-0.046816	-0.15316	-0.008669	-0.046816	0.031938	-0.008669	0	0	0	-0.15598	-0.0036646	0.042804	-0.12551	0.070774	0.13056	-0.13963	-0.088774	0.11592
553	5.2014	-0.094422	0.049625	0.12431	0.10858	0.078136	0.25637	0.09973	0.10924	0.25755	-0.046816	-0.15316	-0.008669	-0.046816	0.031938	-0.008669	0	0	0	-0.15589	-0.0034801	0.042733	-0.12542	0.070521	0.13085	-0.13966	-0.088942	0.11548
554	5.2108	-0.094242	0.049369	0.12458	0.1089	0.07543	0.25691	0.1003	0.10659	0.25832	-0.046816	-0.15316	-0.008669	-0.046816	0.031938	-0.008669	0	0	0	-0.15581	-0.0032954	0.042665	-0.12533	0.070265	0.13115	-0.13969	-0.08911	0.11503
555	5.2203	-0.094061	0.049109	0.12486	0.10921	0.072704	0.25744	0.10087	0.10391	0.25908	-0.046816	-0.15316	-0.008669	-0.046816	0.031938	-0.008669	0	0	0	-0.15572	-0.0031107	0.042597	-0.12523	0.070006	0.13146	-0.13972	-0.089277	0.11458
556	5.2297	-0.09388	0.048845	0.12513	0.10951	0.06996	0.25797	0.10142	0.10121	0.25985	-0.046816	-0.15316	-0.008669	-0.046816	0.031938	-0.008669	0	0	0	-0.15564	-0.002926	0.04253	-0.12514	0.069744	0.13176	-0.13975	-0.089443	0.11413
557	5.2391	-0.093699	0.048578	0.12541	0.10979	0.067199	0.2585	0.10195	0.098489	0.2606	-0.046816	-0.15316	-0.008669	-0.046816	0.031938	-0.008669	0	0	0	-0.15555	-0.0027413	0.042464	-0.12505	0.069479	0.13207	-0.13977	-0.089607	0.11368
558	5.2485	-0.093518	0.048307	0.12569	0.11006	0.064422	0.25902	0.10248	0.095749	0.26136	-0.046816	-0.15316	-0.008669	-0.046816	0.031938	-0.008669	0	0	0	-0.15546	-0.0025567	0.0424	-0.12497	0.069211	0.13237	-0.1398	-0.089771	0.11322
559	5.258	-0.093337	0.048033	0.12598	0.11031	0.061631	0.25954	0.10299	0.092991	0.26211	-0.046816	-0.15316	-0.008669	-0.046816	0.031938	-0.008669	0	0	0	-0.15537	-0.0023722	0.042337	-0.12488	0.068941	0.13268	-0.13983	-0.089934	0.11277
560	5.2674	-0.093156	0.047755	0.12626	0.11056	0.058827	0.26006	0.10349	0.090218	0.26285	-0.046816	-0.15316	-0.008669	-0.046816	0.031938	-0.008669	0	0	0	-0.15528	-0.0021879	0.042275	-0.12479	0.068668	0.13299	-0.13986	-0.090096	0.11232
561	5.2768	-0.092977	0.047474	0.12655	0.11078	0.056011	0.26056	0.10397	0.087429	0.26359	-0.046816	-0.15316	-0.008669	-0.046816	0.031938	-0.008669	0	0	0	-0.15519	-0.0020038	0.042214	-0.1247	0.068392	0.1333	-0.13988	-0.090257	0.11186
562	5.2862	-0.092799	0.047189	0.12684	0.111	0.053186	0.26106	0.10444	0.084628	0.26431	-0.046816	-0.15316	-0.008669	-0.046816	0.031938	-0.008669	0	0	0	-0.15509	-0.00182	0.042154	-0.12462	0.068114	0.13361	-0.13991	-0.090417	0.11141
563	5.2956	-0.092623	0.046901	0.12713	0.1112	0.050351	0.26155	0.10489	0.081814	0.26503	-0.046816	-0.15316	-0.008669	-0.046816	0.031938	-0.008669	0	0	0	-0.155	-0.0016366	0.042096	-0.12453	0.067833	0.13392	-0.13994	-0.090575	0.11095
564	5.3051	-0.092448	0.04661	0.12742	0.11138	0.047509	0.26204	0.10533	0.07899	0.26575	-0.046816	-0.15316	-0.008669	-0.046816	0.031938	-0.008669	0	0	0	-0.15491	-0.0014534	0.042039	-0.12445	0.06755	0.13423	-0.13997	-0.090732	0.1105
565	5.3145	-0.092275	0.046315	0.12772	0.11155	0.044661	0.26251	0.10576	0.076157	0.26645	-0.046816	-0.15316	-0.008669	-0.046816	0.031938	-0.008669	0	0	0	-0.15481	-0.0012707	0.041983	-0.12436	0.067264	0.13454	-0.14	-0.090888	0.11004
566	5.3239	-0.092105	0.046018	0.12801	0.11171	0.041808	0.26298	0.10616	0.073316	0.26714	-0.046816	-0.15316	-0.008669	-0.046816	0.031938	-0.008669	0	0	0	-0.15471	-0.0010885	0.041929	-0.12428	0.066976	0.13485	-0.14003	-0.091043	0.10958
567	5.3333	-0.091937	0.045717	0.12831	0.11185	0.038952	0.26344	0.10655	0.07047	0.26782	-0.046816	-0.15316	-0.008669	-0.046816	0.031938	-0.008669	0	0	0	-0.15462	-0.00090676	0.041876	-0.1242	0.066686	0.13516	-0.14006	-0.091196	0.10912
568	5.3428	-0.091772	0.045413	0.12861	0.11197	0.036094	0.26389	0.10693	0.067618	0.26849	-0.046816	-0.15316	-0.008669	-0.046816	0.031938	-0.008669	0	0	0	-0.15452	-0.00072558	0.041824	-0.12412	0.066393	0.13547	-0.1401	-0.091348	0.10866
569	5.3522	-0.09161	0.045106	0.12891	0.11208	0.033235	0.26433	0.10728	0.064763	0.26914	-0.046816	-0.15316	-0.008669	-0.046816	0.031938	-0.008669	0	0	0	-0.15442	-0.000545	0.041774	-0.12404	0.066098	0.13578	-0.14013	-0.091498	0.1082
570	5.3616	-0.091452	0.044796	0.12921	0.11218	0.030377	0.26476	0.10762	0.061906	0.26979	-0.046816	-0.15316	-0.008669	-0.046816	0.031938	-0.008669	0	0	0	-0.15433	-0.00036506	0.041725	-0.12396	0.065801	0.13608	-0.14017	-0.091647	0.10774
571	5.371	-0.091297	0.044483	0.12951	0.11226	0.027522	0.26518	0.10794	0.059049	0.27042	-0.046816	-0.15316	-0.008669	-0.046816	0.031938	-0.008669	0	0	0	-0.15423	-0.00018582	0.041677	-0.12388	0.065502	0.13639	-0.14021	-0.091795	0.10728
572	5.3804	-0.091146	0.044167	0.12982	0.11232	0.02467	0.26558	0.10824	0.056193	0.27103	-0.046816	-0.15316	-0.008669	-0.046816	0.031938	-0.008669	0	0	0	-0.15413	-7.3244e-06	0.041631	-0.12381	0.065201	0.1367	-0.14025	-0.091941	0.10682
573	5.3899	-0.091	0.043848	0.13012	0.11237	0.021823	0.26598	0.10852	0.053339	0.27164	-0.046816	-0.15316	-0.008669	-0.046816	0.031938	-0.008669	0	0	0	-0.15403	0.00017039	0.041586	-0.12373	0.064898	0.137	-0.14029	-0.092085	0.10635
574	5.3993	-0.090858	0.043527	0.13043	0.1124	0.018982	0.26636	0.10879	0.050489	0.27222	-0.046816	-0.15316	-0.008669	-0.046816	0.031938	-0.008669	0	0	0	-0.15394	0.00034726	0.041543	-0.12366	0.064592	0.1373	-0.14033	-0.092228	0.10589
575	5.4087	-0.090721	0.043202	0.13073	0.11241	0.016149	0.26673	0.10903	0.047644	0.27279	-0.046816	-0.15316	-0.008669	-0.046816	0.031938	-0.008669	0	0	0	-0.15384	0.00052325	0.041501	-0.12359	0.064285	0.1376	-0.14038	-0.092369	0.10542
576	5.4181	-0.090589	0.042875	0.13104	0.11241	0.013325	0.26709	0.10925	0.044806	0.27334	-0.046816	-0.15316	-0.008669	-0.046816	0.031938	-0.008669	0	0	0	-0.15374	0.00069831	0.041461	-0.12352	0.063976	0.1379	-0.14043	-0.092509	0.10495
577	5.4276	-0.090462	0.042546	0.13135	0.11239	0.010512	0.26743	0.10945	0.041976	0.27387	-0.046816	-0.15316	-0.008669	-0.046816	0.031938	-0.008669	0	0	0	-0.15364	0.0008724	0.041422	-0.12345	0.063665	0.1382	-0.14048	-0.092646	0.10449
578	5.437	-0.090341	0.042213	0.13166	0.11235	0.0077102	0.26776	0.10963	0.039155	0.27439	-0.046816	-0.15316	-0.008669	-0.046816	0.031938	-0.008669	0	0	0	-0.15355	0.0010455	0.041385	-0.12338	0.063352	0.13849	-0.14053	-0.092782	0.10402
